REM DIRINDEX 1\6,1\2\7,1\2\8,1\2\9,1\3\10,1\3\11,1\4\12,1\4\13,1\4\14,1\5\15,1\5\16,1\5\17
REM DIRNAME folder01,folder02,folder03,folder04,folder05,folder06,folder07,folder08,folder09,folder10,folder11,folder12,folder13,folder14,folder15,folder16,folder17
TITLE ""
FILE "3Q_t2_0142-0157.mp3" MP3
  TRACK 01 AUDIO
    TITLE "7:cjc041_3838"
    INDEX 01 00:00:00
  TRACK 02 AUDIO
    TITLE "0:"
    INDEX 01 00:00:70
  TRACK 03 AUDIO
    TITLE "8:cjc041_3839"
    INDEX 01 00:01:48
  TRACK 04 AUDIO
    TITLE "0:"
    INDEX 01 00:03:72
  TRACK 05 AUDIO
    TITLE "9:cjc041_3840"
    INDEX 01 00:04:44
  TRACK 06 AUDIO
    TITLE "0:"
    INDEX 01 00:05:48
  TRACK 07 AUDIO
    TITLE "7:cjc041_3841"
    INDEX 01 00:07:33
  TRACK 08 AUDIO
    TITLE "0:"
    INDEX 01 00:08:48
  TRACK 09 AUDIO
    TITLE "8:cjc041_3842"
    INDEX 01 00:09:22
  TRACK 10 AUDIO
    TITLE "0:"
    INDEX 01 00:10:29
  TRACK 11 AUDIO
    TITLE "9:cjc041_3843"
    INDEX 01 00:11:05
  TRACK 12 AUDIO
    TITLE "0:"
    INDEX 01 00:12:24
  TRACK 13 AUDIO
    TITLE "7:cjc041_3844"
    INDEX 01 00:14:06
  TRACK 14 AUDIO
    TITLE "0:"
    INDEX 01 00:15:07
  TRACK 15 AUDIO
    TITLE "8:cjc041_3845"
    INDEX 01 00:15:64
  TRACK 16 AUDIO
    TITLE "0:"
    INDEX 01 00:17:63
  TRACK 17 AUDIO
    TITLE "9:cjc041_3846"
    INDEX 01 00:18:41
  TRACK 18 AUDIO
    TITLE "0:"
    INDEX 01 00:19:44
  TRACK 19 AUDIO
    TITLE "7:cjc041_3847"
    INDEX 01 00:21:25
  TRACK 20 AUDIO
    TITLE "0:"
    INDEX 01 00:22:27
  TRACK 21 AUDIO
    TITLE "8:cjc041_3848"
    INDEX 01 00:23:01
  TRACK 22 AUDIO
    TITLE "0:"
    INDEX 01 00:25:68
  TRACK 23 AUDIO
    TITLE "9:cjc041_3849"
    INDEX 01 00:26:44
  TRACK 24 AUDIO
    TITLE "0:"
    INDEX 01 00:27:51
  TRACK 25 AUDIO
    TITLE "7:cjc041_3850"
    INDEX 01 00:29:29
  TRACK 26 AUDIO
    TITLE "0:"
    INDEX 01 00:30:55
  TRACK 27 AUDIO
    TITLE "8:cjc041_3851"
    INDEX 01 00:31:39
  TRACK 28 AUDIO
    TITLE "0:"
    INDEX 01 00:32:58
  TRACK 29 AUDIO
    TITLE "9:cjc041_3852"
    INDEX 01 00:33:32
  TRACK 30 AUDIO
    TITLE "0:"
    INDEX 01 00:34:63
  TRACK 31 AUDIO
    TITLE "7:cjc041_3853"
    INDEX 01 00:36:44
  TRACK 32 AUDIO
    TITLE "0:"
    INDEX 01 00:37:59
  TRACK 33 AUDIO
    TITLE "8:cjc041_3854"
    INDEX 01 00:38:39
  TRACK 34 AUDIO
    TITLE "0:"
    INDEX 01 00:40:62
  TRACK 35 AUDIO
    TITLE "9:cjc041_3855"
    INDEX 01 00:41:42
  TRACK 36 AUDIO
    TITLE "0:"
    INDEX 01 00:42:59
  TRACK 37 AUDIO
    TITLE "7:cjc041_3856"
    INDEX 01 00:44:38
  TRACK 38 AUDIO
    TITLE "0:"
    INDEX 01 00:45:47
  TRACK 39 AUDIO
    TITLE "8:cjc041_3857"
    INDEX 01 00:46:25
  TRACK 40 AUDIO
    TITLE "0:"
    INDEX 01 00:48:16
  TRACK 41 AUDIO
    TITLE "9:cjc041_3858"
    INDEX 01 00:48:71
  TRACK 42 AUDIO
    TITLE "0:"
    INDEX 01 00:50:07
  TRACK 43 AUDIO
    TITLE "7:cjc041_3859"
    INDEX 01 00:51:65
  TRACK 44 AUDIO
    TITLE "0:"
    INDEX 01 00:52:69
  TRACK 45 AUDIO
    TITLE "8:cjc041_3860"
    INDEX 01 00:53:49
  TRACK 46 AUDIO
    TITLE "0:"
    INDEX 01 00:55:71
  TRACK 47 AUDIO
    TITLE "9:cjc041_3861"
    INDEX 01 00:56:47
  TRACK 48 AUDIO
    TITLE "0:"
    INDEX 01 00:57:54
  TRACK 49 AUDIO
    TITLE "7:cjc041_3862"
    INDEX 01 00:59:34
  TRACK 50 AUDIO
    TITLE "0:"
    INDEX 01 01:00:45
  TRACK 51 AUDIO
    TITLE "8:cjc041_3863"
    INDEX 01 01:01:31
  TRACK 52 AUDIO
    TITLE "0:"
    INDEX 01 01:02:16
  TRACK 53 AUDIO
    TITLE "9:cjc041_3864"
    INDEX 01 01:02:71
  TRACK 54 AUDIO
    TITLE "0:"
    INDEX 01 01:04:09
  TRACK 55 AUDIO
    TITLE "7:cjc041_3865"
    INDEX 01 01:05:66
  TRACK 56 AUDIO
    TITLE "0:"
    INDEX 01 01:06:71
  TRACK 57 AUDIO
    TITLE "8:cjc041_3866"
    INDEX 01 01:07:53
  TRACK 58 AUDIO
    TITLE "0:"
    INDEX 01 01:08:44
  TRACK 59 AUDIO
    TITLE "9:cjc041_3867"
    INDEX 01 01:09:22
  TRACK 60 AUDIO
    TITLE "0:"
    INDEX 01 01:10:33
  TRACK 61 AUDIO
    TITLE "7:cjc041_3868"
    INDEX 01 01:12:17
  TRACK 62 AUDIO
    TITLE "0:"
    INDEX 01 01:13:38
  TRACK 63 AUDIO
    TITLE "8:cjc041_3869"
    INDEX 01 01:14:19
  TRACK 64 AUDIO
    TITLE "0:"
    INDEX 01 01:15:50
  TRACK 65 AUDIO
    TITLE "9:cjc041_3870"
    INDEX 01 01:16:28
  TRACK 66 AUDIO
    TITLE "0:"
    INDEX 01 01:17:53
  TRACK 67 AUDIO
    TITLE "7:cjc041_3871"
    INDEX 01 01:19:34
  TRACK 68 AUDIO
    TITLE "0:"
    INDEX 01 01:20:49
  TRACK 69 AUDIO
    TITLE "8:cjc041_3872"
    INDEX 01 01:21:25
  TRACK 70 AUDIO
    TITLE "0:"
    INDEX 01 01:24:26
  TRACK 71 AUDIO
    TITLE "9:cjc041_3873"
    INDEX 01 01:25:02
  TRACK 72 AUDIO
    TITLE "0:"
    INDEX 01 01:26:17
  TRACK 73 AUDIO
    TITLE "7:cjc041_3874"
    INDEX 01 01:28:00
  TRACK 74 AUDIO
    TITLE "0:"
    INDEX 01 01:29:07
  TRACK 75 AUDIO
    TITLE "8:cjc041_3875"
    INDEX 01 01:29:62
  TRACK 76 AUDIO
    TITLE "0:"
    INDEX 01 01:33:25
  TRACK 77 AUDIO
    TITLE "9:cjc041_3876"
    INDEX 01 01:34:06
  TRACK 78 AUDIO
    TITLE "0:"
    INDEX 01 01:35:16
  TRACK 79 AUDIO
    TITLE "7:cjc041_3877"
    INDEX 01 01:36:72
  TRACK 80 AUDIO
    TITLE "0:"
    INDEX 01 01:38:14
  TRACK 81 AUDIO
    TITLE "8:cjc041_3878"
    INDEX 01 01:38:67
  TRACK 82 AUDIO
    TITLE "0:"
    INDEX 01 01:41:03
  TRACK 83 AUDIO
    TITLE "9:cjc041_3879"
    INDEX 01 01:41:54
  TRACK 84 AUDIO
    TITLE "0:"
    INDEX 01 01:42:69
  TRACK 85 AUDIO
    TITLE "7:cjc041_3880"
    INDEX 01 01:44:50
  TRACK 86 AUDIO
    TITLE "0:"
    INDEX 01 01:45:53
  TRACK 87 AUDIO
    TITLE "8:cjc041_3881"
    INDEX 01 01:46:35
  TRACK 88 AUDIO
    TITLE "0:"
    INDEX 01 01:48:26
  TRACK 89 AUDIO
    TITLE "9:cjc041_3882"
    INDEX 01 01:49:02
  TRACK 90 AUDIO
    TITLE "0:"
    INDEX 01 01:50:06
  TRACK 91 AUDIO
    TITLE "7:cjc041_3883"
    INDEX 01 01:51:62
  TRACK 92 AUDIO
    TITLE "0:"
    INDEX 01 01:52:67
  TRACK 93 AUDIO
    TITLE "8:cjc041_3884"
    INDEX 01 01:53:47
  TRACK 94 AUDIO
    TITLE "0:"
    INDEX 01 01:56:30
  TRACK 95 AUDIO
    TITLE "9:cjc041_3885"
    INDEX 01 01:57:02
  TRACK 96 AUDIO
    TITLE "0:"
    INDEX 01 01:58:07
